# xmcd CD database file
#
# Track frame offsets:
#	150
#	6135
#	19307
#	31942
#	40970
#	48295
#	55765
#	65990
#	75843
#	88830
#	99290
#	108493
#	115835
#	126070
#	134900
#	141050
#	151682
#	159917
#	173577
#	184117
#
# Disc length: 2588 seconds
#
# Revision: 2
# Processed by: cddbd v1.4PL0 Copyright (c) Steve Scherf et al.
# Submitted via: CDex 1.40Beta9
#
DISCID=fd0a1a14
DTITLE=Merle Travis - Guitar Retrospective
DYEAR=1995
DGENRE=Country
TTITLE0=Whit Heat
TTITLE1=High Noon
TTITLE2=Lonesome Road Blues
TTITLE3=Bye Bye Blues
TTITLE4=Cannonball Rag
TTITLE5=La Marcha De Los Mexicanos
TTITLE6=After You've Gone
TTITLE7=Love Letters In The Sand
TTITLE8=Mack The Knife
TTITLE9=I'll See You In My Dreams
TTITLE10=Back In The Saddle Again
TTITLE11=Liza
TTITLE12=Swanee
TTITLE13=El Rancho Grande
TTITLE14=The World Is Waiting For The Sunrise
TTITLE15=I Saw The Light
TTITLE16=Dance Of The Goldenrod
TTITLE17=If I Had You
TTITLE18=On The Jericho Road
TTITLE19=Guitar Rag
EXTD=YEAR: 1995 ID3G: 2
EXTT0=
EXTT1=
EXTT2=
EXTT3=
EXTT4=
EXTT5=
EXTT6=
EXTT7=
EXTT8=
EXTT9=
EXTT10=
EXTT11=
EXTT12=
EXTT13=
EXTT14=
EXTT15=
EXTT16=
EXTT17=
EXTT18=
EXTT19=
PLAYORDER=
